<svg width="100" height="100" viewBox="0 0 100 100" fill="none" xmlns="http://www.w3.org/2000/svg">
<circle cx="50" cy="50" r="50" fill="#F0E3B6"/>
<path d="M50 100C43.4339 100 36.9321 98.7067 30.8658 96.194C24.7995 93.6812 19.2876 89.9983 14.6447 85.3553C10.0017 80.7124 6.31876 75.2004 3.80602 69.1342C1.29329 63.0679 -2.87013e-07 56.5661 0 50C2.87013e-07 43.4339 1.29329 36.9321 3.80602 30.8658C6.31876 24.7995 10.0017 19.2876 14.6447 14.6447C19.2876 10.0017 24.7996 6.31876 30.8658 3.80602C36.9321 1.29329 43.4339 -5.74026e-07 50 0L50 50L50 100Z" fill="#D5B35D"/>
</svg>
