<svg width="275" height="51" viewBox="0 0 275 51" fill="none" xmlns="http://www.w3.org/2000/svg">
<g filter="url(#filter0_d_648_12813)">
<path d="M119.5 5C116.434 5 113.438 5.90906 110.889 7.61222C108.34 9.31538 106.353 11.7361 105.18 14.5684C104.007 17.4007 103.7 20.5172 104.298 23.5239C104.896 26.5306 106.372 29.2924 108.54 31.4601C110.708 33.6279 113.469 35.1041 116.476 35.7022C119.483 36.3002 122.599 35.9933 125.432 34.8201C128.264 33.647 130.685 31.6603 132.388 29.1113C134.091 26.5624 135 23.5656 135 20.5C134.996 16.3905 133.361 12.4505 130.455 9.54464C127.549 6.63876 123.61 5.00434 119.5 5ZM119.5 33.6154C116.906 33.6154 114.37 32.8462 112.213 31.405C110.057 29.9639 108.376 27.9156 107.383 25.519C106.39 23.1225 106.131 20.4854 106.637 17.9413C107.143 15.3972 108.392 13.0602 110.226 11.226C112.06 9.3918 114.397 8.14268 116.941 7.63662C119.485 7.13056 122.123 7.39029 124.519 8.38296C126.916 9.37564 128.964 11.0567 130.405 13.2135C131.846 15.3703 132.615 17.906 132.615 20.5C132.611 23.9772 131.228 27.3109 128.77 29.7696C126.311 32.2284 122.977 33.6114 119.5 33.6154ZM126.12 12.279L116.582 17.0483C116.351 17.1641 116.164 17.3512 116.048 17.5818L111.279 27.1203C111.188 27.3021 111.145 27.5042 111.154 27.7074C111.163 27.9105 111.224 28.1079 111.331 28.2809C111.438 28.4538 111.588 28.5966 111.765 28.6955C111.943 28.7944 112.143 28.8463 112.346 28.8461C112.531 28.8459 112.714 28.803 112.88 28.721L122.418 23.9517C122.649 23.8359 122.836 23.6488 122.952 23.4182L127.721 13.8797C127.833 13.6557 127.873 13.402 127.833 13.1546C127.793 12.9071 127.676 12.6786 127.499 12.5014C127.321 12.3241 127.093 12.2073 126.845 12.1673C126.598 12.1274 126.344 12.1665 126.12 12.279ZM120.99 21.9904L115.012 24.9875L118.01 19.0096L123.994 16.0184L120.99 21.9904Z" fill="#D5B35D"/>
</g>
<g filter="url(#filter1_d_648_12813)">
<path d="M15.6 12.76C17.2533 12.76 18.7333 13.1067 20.04 13.8C21.3733 14.4933 22.4133 15.56 23.16 17C23.9333 18.4133 24.32 20.1467 24.32 22.2V35H21.56V22.52C21.56 20.1467 20.96 18.3333 19.76 17.08C18.5867 15.8267 16.9733 15.2 14.92 15.2C12.8133 15.2 11.1333 15.8667 9.88 17.2C8.62667 18.5333 8 20.4933 8 23.08V35H5.2V5.4H8V16.88C8.69333 15.5733 9.70667 14.56 11.04 13.84C12.4 13.12 13.92 12.76 15.6 12.76ZM42.3125 35L33.3125 25.2V35H30.5125V5.4H33.3125V22.92L42.1125 13.16H46.0325L35.6725 24.04L46.1125 35H42.3125ZM68.6513 13.16V35H65.8513V31.16C65.2113 32.52 64.2246 33.56 62.8913 34.28C61.5579 35 60.0646 35.36 58.4113 35.36C55.7979 35.36 53.6646 34.56 52.0113 32.96C50.3579 31.3333 49.5313 28.9867 49.5313 25.92V13.16H52.2913V25.6C52.2913 27.9733 52.8779 29.7867 54.0513 31.04C55.2513 32.2933 56.8779 32.92 58.9313 32.92C61.0379 32.92 62.7179 32.2533 63.9713 30.92C65.2246 29.5867 65.8513 27.6267 65.8513 25.04V13.16H68.6513Z" fill="white"/>
</g>
<g filter="url(#filter2_d_648_12813)">
<path d="M73.92 21C73.92 18.2533 74.52 15.8 75.72 13.64C76.92 11.4533 78.56 9.76 80.64 8.56C82.72 7.33333 85.04 6.72 87.6 6.72C90.72 6.72 93.3867 7.46667 95.6 8.96C97.84 10.4267 99.4667 12.5067 100.48 15.2H97.2C96.4 13.3067 95.1733 11.8267 93.52 10.76C91.8933 9.69333 89.92 9.16 87.6 9.16C85.5467 9.16 83.6933 9.64 82.04 10.6C80.4133 11.56 79.1333 12.9467 78.2 14.76C77.2667 16.5467 76.8 18.6267 76.8 21C76.8 23.3733 77.2667 25.4533 78.2 27.24C79.1333 29.0267 80.4133 30.4 82.04 31.36C83.6933 32.32 85.5467 32.8 87.6 32.8C89.92 32.8 91.8933 32.28 93.52 31.24C95.1733 30.1733 96.4 28.7067 97.2 26.84H100.48C99.4667 29.5067 97.84 31.5733 95.6 33.04C93.36 34.5067 90.6933 35.24 87.6 35.24C85.04 35.24 82.72 34.64 80.64 33.44C78.56 32.2133 76.92 30.52 75.72 28.36C74.52 26.2 73.92 23.7467 73.92 21ZM164.989 12.76C167.549 12.76 169.629 13.5733 171.229 15.2C172.856 16.8 173.669 19.1333 173.669 22.2V35H170.909V22.52C170.909 20.1467 170.336 18.3333 169.189 17.08C168.042 15.8267 166.482 15.2 164.509 15.2C162.456 15.2 160.816 15.88 159.589 17.24C158.362 18.6 157.749 20.5733 157.749 23.16V35H154.989V22.52C154.989 20.1467 154.416 18.3333 153.269 17.08C152.122 15.8267 150.549 15.2 148.549 15.2C146.496 15.2 144.856 15.88 143.629 17.24C142.402 18.6 141.789 20.5733 141.789 23.16V35H138.989V13.16H141.789V16.92C142.482 15.56 143.469 14.5333 144.749 13.84C146.029 13.12 147.456 12.76 149.029 12.76C150.922 12.76 152.576 13.2133 153.989 14.12C155.429 15.0267 156.469 16.36 157.109 18.12C157.696 16.3867 158.696 15.0667 160.109 14.16C161.549 13.2267 163.176 12.76 164.989 12.76ZM182.648 17.96C183.341 16.4933 184.434 15.28 185.928 14.32C187.448 13.3333 189.248 12.84 191.328 12.84C193.301 12.84 195.074 13.3067 196.648 14.24C198.248 15.1467 199.488 16.4533 200.368 18.16C201.274 19.84 201.728 21.8 201.728 24.04C201.728 26.28 201.274 28.2533 200.368 29.96C199.488 31.6667 198.248 32.9867 196.648 33.92C195.074 34.8533 193.301 35.32 191.328 35.32C189.274 35.32 187.488 34.84 185.968 33.88C184.448 32.8933 183.341 31.6667 182.648 30.2V45.32H179.888V13.16H182.648V17.96ZM198.888 24.04C198.888 22.2267 198.528 20.6667 197.807 19.36C197.114 18.0267 196.154 17.0133 194.928 16.32C193.701 15.6267 192.314 15.28 190.768 15.28C189.274 15.28 187.901 15.64 186.648 16.36C185.421 17.08 184.448 18.1067 183.728 19.44C183.008 20.7733 182.648 22.32 182.648 24.08C182.648 25.84 183.008 27.3867 183.728 28.72C184.448 30.0533 185.421 31.08 186.648 31.8C187.901 32.52 189.274 32.88 190.768 32.88C192.314 32.88 193.701 32.5333 194.928 31.84C196.154 31.12 197.114 30.0933 197.807 28.76C198.528 27.4 198.888 25.8267 198.888 24.04ZM205.6 24.04C205.6 21.8 206.04 19.84 206.92 18.16C207.826 16.4533 209.066 15.1467 210.64 14.24C212.24 13.3067 214.04 12.84 216.04 12.84C218.12 12.84 219.906 13.32 221.4 14.28C222.92 15.24 224.013 16.4667 224.68 17.96V13.16H227.48V35H224.68V30.16C223.986 31.6533 222.88 32.8933 221.36 33.88C219.866 34.84 218.08 35.32 216 35.32C214.026 35.32 212.24 34.8533 210.64 33.92C209.066 32.9867 207.826 31.6667 206.92 29.96C206.04 28.2533 205.6 26.28 205.6 24.04ZM224.68 24.08C224.68 22.32 224.32 20.7733 223.6 19.44C222.88 18.1067 221.893 17.08 220.64 16.36C219.413 15.64 218.053 15.28 216.56 15.28C215.013 15.28 213.626 15.6267 212.4 16.32C211.173 17.0133 210.2 18.0267 209.48 19.36C208.786 20.6667 208.44 22.2267 208.44 24.04C208.44 25.8267 208.786 27.4 209.48 28.76C210.2 30.0933 211.173 31.12 212.4 31.84C213.626 32.5333 215.013 32.88 216.56 32.88C218.053 32.88 219.413 32.52 220.64 31.8C221.893 31.08 222.88 30.0533 223.6 28.72C224.32 27.3867 224.68 25.84 224.68 24.08ZM241.392 35.32C238.885 35.32 236.832 34.7467 235.232 33.6C233.659 32.4267 232.779 30.84 232.592 28.84H235.472C235.605 30.0667 236.179 31.0667 237.192 31.84C238.232 32.5867 239.619 32.96 241.352 32.96C242.872 32.96 244.059 32.6 244.912 31.88C245.792 31.16 246.232 30.2667 246.232 29.2C246.232 28.4533 245.992 27.84 245.512 27.36C245.032 26.88 244.419 26.5067 243.672 26.24C242.952 25.9467 241.965 25.64 240.712 25.32C239.085 24.8933 237.765 24.4667 236.752 24.04C235.739 23.6133 234.872 22.9867 234.152 22.16C233.459 21.3067 233.112 20.1733 233.112 18.76C233.112 17.6933 233.432 16.7067 234.072 15.8C234.712 14.8933 235.619 14.1733 236.792 13.64C237.965 13.1067 239.299 12.84 240.792 12.84C243.139 12.84 245.032 13.44 246.472 14.64C247.912 15.8133 248.685 17.44 248.792 19.52H245.992C245.912 18.24 245.405 17.2133 244.472 16.44C243.565 15.64 242.312 15.24 240.712 15.24C239.299 15.24 238.152 15.5733 237.272 16.24C236.392 16.9067 235.952 17.7333 235.952 18.72C235.952 19.5733 236.205 20.28 236.712 20.84C237.245 21.3733 237.899 21.8 238.672 22.12C239.445 22.4133 240.485 22.7467 241.792 23.12C243.365 23.5467 244.619 23.96 245.552 24.36C246.485 24.76 247.285 25.3467 247.952 26.12C248.619 26.8933 248.965 27.92 248.992 29.2C248.992 30.3733 248.672 31.4267 248.032 32.36C247.392 33.2667 246.499 33.9867 245.352 34.52C244.205 35.0533 242.885 35.32 241.392 35.32ZM261.783 35.32C259.276 35.32 257.223 34.7467 255.623 33.6C254.049 32.4267 253.169 30.84 252.983 28.84H255.863C255.996 30.0667 256.569 31.0667 257.583 31.84C258.623 32.5867 260.009 32.96 261.743 32.96C263.263 32.96 264.449 32.6 265.303 31.88C266.183 31.16 266.623 30.2667 266.623 29.2C266.623 28.4533 266.383 27.84 265.903 27.36C265.423 26.88 264.809 26.5067 264.063 26.24C263.343 25.9467 262.356 25.64 261.103 25.32C259.476 24.8933 258.156 24.4667 257.143 24.04C256.129 23.6133 255.263 22.9867 254.543 22.16C253.849 21.3067 253.503 20.1733 253.503 18.76C253.503 17.6933 253.823 16.7067 254.463 15.8C255.103 14.8933 256.009 14.1733 257.183 13.64C258.356 13.1067 259.689 12.84 261.183 12.84C263.529 12.84 265.423 13.44 266.863 14.64C268.303 15.8133 269.076 17.44 269.183 19.52H266.383C266.303 18.24 265.796 17.2133 264.863 16.44C263.956 15.64 262.703 15.24 261.103 15.24C259.689 15.24 258.543 15.5733 257.663 16.24C256.783 16.9067 256.342 17.7333 256.342 18.72C256.342 19.5733 256.596 20.28 257.103 20.84C257.636 21.3733 258.289 21.8 259.063 22.12C259.836 22.4133 260.876 22.7467 262.183 23.12C263.756 23.5467 265.009 23.96 265.943 24.36C266.876 24.76 267.676 25.3467 268.343 26.12C269.009 26.8933 269.356 27.92 269.383 29.2C269.383 30.3733 269.063 31.4267 268.423 32.36C267.783 33.2667 266.889 33.9867 265.743 34.52C264.596 35.0533 263.276 35.32 261.783 35.32Z" fill="#D5B35D"/>
</g>
<defs>
<filter id="filter0_d_648_12813" x="99" y="0" width="41" height="41" filterUnits="userSpaceOnUse" color-interpolation-filters="sRGB">
<feFlood flood-opacity="0" result="BackgroundImageFix"/>
<feColorMatrix in="SourceAlpha" type="matrix" values="0 0 0 0 0 0 0 0 0 0 0 0 0 0 0 0 0 0 127 0" result="hardAlpha"/>
<feOffset/>
<feGaussianBlur stdDeviation="2.5"/>
<feComposite in2="hardAlpha" operator="out"/>
<feColorMatrix type="matrix" values="0 0 0 0 0.941176 0 0 0 0 0.890196 0 0 0 0 0.713726 0 0 0 0.5 0"/>
<feBlend mode="normal" in2="BackgroundImageFix" result="effect1_dropShadow_648_12813"/>
<feBlend mode="normal" in="SourceGraphic" in2="effect1_dropShadow_648_12813" result="shape"/>
</filter>
<filter id="filter1_d_648_12813" x="0.200195" y="0.400024" width="73.4512" height="39.96" filterUnits="userSpaceOnUse" color-interpolation-filters="sRGB">
<feFlood flood-opacity="0" result="BackgroundImageFix"/>
<feColorMatrix in="SourceAlpha" type="matrix" values="0 0 0 0 0 0 0 0 0 0 0 0 0 0 0 0 0 0 127 0" result="hardAlpha"/>
<feOffset/>
<feGaussianBlur stdDeviation="2.5"/>
<feComposite in2="hardAlpha" operator="out"/>
<feColorMatrix type="matrix" values="0 0 0 0 1 0 0 0 0 1 0 0 0 0 1 0 0 0 0.5 0"/>
<feBlend mode="normal" in2="BackgroundImageFix" result="effect1_dropShadow_648_12813"/>
<feBlend mode="normal" in="SourceGraphic" in2="effect1_dropShadow_648_12813" result="shape"/>
</filter>
<filter id="filter2_d_648_12813" x="68.9199" y="1.71997" width="205.462" height="48.6" filterUnits="userSpaceOnUse" color-interpolation-filters="sRGB">
<feFlood flood-opacity="0" result="BackgroundImageFix"/>
<feColorMatrix in="SourceAlpha" type="matrix" values="0 0 0 0 0 0 0 0 0 0 0 0 0 0 0 0 0 0 127 0" result="hardAlpha"/>
<feOffset/>
<feGaussianBlur stdDeviation="2.5"/>
<feComposite in2="hardAlpha" operator="out"/>
<feColorMatrix type="matrix" values="0 0 0 0 0.941176 0 0 0 0 0.890196 0 0 0 0 0.713726 0 0 0 0.5 0"/>
<feBlend mode="normal" in2="BackgroundImageFix" result="effect1_dropShadow_648_12813"/>
<feBlend mode="normal" in="SourceGraphic" in2="effect1_dropShadow_648_12813" result="shape"/>
</filter>
</defs>
</svg>
