<svg width="100" height="100" viewBox="0 0 100 100" fill="none" xmlns="http://www.w3.org/2000/svg">
<path d="M74.9922 16.6836C68.2734 13.0195 59.375 11 49.9375 11C40.5 11 31.6016 13.0195 24.8828 16.6836C17.8633 20.5117 14 25.707 14 31.3125V68.8125C14 74.418 17.8633 79.6133 24.8828 83.4414C31.6016 87.1055 40.5078 89.125 49.9375 89.125C59.3672 89.125 68.2734 87.1055 74.9922 83.4414C82.0234 79.6133 85.875 74.418 85.875 68.8125V31.3125C85.875 25.707 82.0117 20.5117 74.9922 16.6836ZM82.75 68.8125C82.75 73.2227 79.4648 77.4453 73.4961 80.6992C67.2305 84.1172 58.8633 86 49.9375 86C41.0117 86 32.6445 84.1172 26.3789 80.6992C20.4102 77.4453 17.125 73.2227 17.125 68.8125V58.4531C18.957 60.7695 21.5664 62.8828 24.8828 64.7031C31.6016 68.3672 40.5078 70.3867 49.9375 70.3867C59.3672 70.3867 68.2734 68.3672 74.9922 64.7031C78.3086 62.8945 80.918 60.7969 82.75 58.4531V68.8125ZM82.75 50.0625C82.75 54.4727 79.4648 58.6953 73.4961 61.9492C67.2305 65.3672 58.8633 67.25 49.9375 67.25C41.0117 67.25 32.6445 65.3672 26.3789 61.9492C20.4102 58.6953 17.125 54.4727 17.125 50.0625V39.7031C18.957 42.0195 21.5664 44.1328 24.8828 45.9531C31.6016 49.6172 40.5078 51.6367 49.9375 51.6367C59.3672 51.6367 68.2734 49.6172 74.9922 45.9531C78.3086 44.1445 80.918 42.0469 82.75 39.7031V50.0625ZM73.4961 43.1992C67.2305 46.6172 58.8633 48.5 49.9375 48.5C41.0117 48.5 32.6445 46.6172 26.3789 43.1992C20.4102 39.9453 17.125 35.7227 17.125 31.3125C17.125 26.9023 20.4102 22.6797 26.3789 19.4258C32.6445 16.0078 41.0117 14.125 49.9375 14.125C58.8633 14.125 67.2305 16.0078 73.4961 19.4258C79.4648 22.6797 82.75 26.9023 82.75 31.3125C82.75 35.7227 79.4648 39.9453 73.4961 43.1992Z" fill="#F5F5F5"/>
</svg>
